<svg xmlns="http://www.w3.org/2000/svg" viewBox="0 0 64 80" x="0px" y="0px"><g><path d="M13.588,11.955c1.911-.053,3.821-.115,5.73-.2,1.284-.06,2.57-.11,3.854-.18,1.46-.08,2.92-.174,4.38-.268,1.123-.072,2.244-.15,3.366-.228,1.231-.086,2.461-.177,3.692-.262.909-.063,1.818-.119,2.728-.177,1.247-.078,2.494-.159,3.741-.232q1.38-.081,2.761-.142c1.332-.06,2.663-.122,4-.164,2.373-.076,4.748-.112,7.122-.033,1.093.036,2.186.074,3.279.108a1.123,1.123,0,0,1,.9.393,1,1,0,0,1-.652,1.61,3.09,3.09,0,0,1-.608.018c-.588-.022-1.176-.043-1.764-.07-.1,0-.143.013-.162.125-.181,1.063-.323,2.131-.461,3.2-.129,1-.26,2-.382,3q-.206,1.691-.395,3.382-.185,1.644-.353,3.292-.18,1.787-.34,3.576c-.114,1.286-.212,2.574-.321,3.861a37.658,37.658,0,0,0-.139,4.073c0,.15.035.209.2.231q1.169.155,2.333.344a1.008,1.008,0,0,1,.867,1.3,1,1,0,0,1-.971.7,8.246,8.246,0,0,1-1.162-.14c-1.784-.249-3.559-.558-5.349-.756-1.926-.213-3.857-.359-5.792-.459-2.9-.148-5.8-.176-8.7-.143-.37,0-.739.02-1.109.022-.125,0-.138.026-.08.137a81.133,81.133,0,0,1,4.18,9.567c.633,1.687,1.166,3.408,1.689,5.131a1.09,1.09,0,0,1-.1.96.929.929,0,0,1-.873.449.985.985,0,0,1-.878-.608,6.17,6.17,0,0,1-.3-.887,81.753,81.753,0,0,0-3.824-10.2,42.758,42.758,0,0,0-2.05-4.124c-.053-.09-.11-.177-.162-.267-.029-.051-.054-.1-.127-.092s-.072.079-.077.133c-.062.7-.129,1.4-.183,2.1-.115,1.459-.234,2.917-.33,4.377-.148,2.234-.317,4.468-.293,6.71,0,.51.017,1.021.017,1.531a1.049,1.049,0,0,1-.388.852.985.985,0,0,1-1.571-.53,2.743,2.743,0,0,1-.064-.652c-.05-2.12.023-4.237.168-6.354.109-1.6.214-3.19.336-4.784.081-1.059.174-2.117.26-3.176,0-.041.038-.1-.031-.117s-.063.043-.076.082a2.28,2.28,0,0,1-.24.472c-2.041,3.463-4.2,6.856-6.212,10.336-.477.824-.949,1.652-1.381,2.5a11.449,11.449,0,0,0-.517,1.187,1.077,1.077,0,0,1-.765.738,1,1,0,0,1-1.184-1.253,4.918,4.918,0,0,1,.383-1.022c.6-1.269,1.31-2.475,2.012-3.687,1.539-2.654,3.178-5.247,4.752-7.879.241-.4.478-.806.716-1.21.025-.043.083-.09.058-.136S26.636,38,26.583,38c-.894.049-1.788.1-2.682.152-.935.058-1.871.118-2.8.188-1.236.092-2.47.194-3.705.3-1.012.083-2.023.168-3.034.262-1.228.114-2.455.24-3.683.359-.979.094-1.956.207-2.932.328-.584.072-1.167.145-1.745.256a1.119,1.119,0,0,1-1.028-.222.987.987,0,0,1,.208-1.611,2.073,2.073,0,0,1,.67-.2c1.259-.2,2.527-.344,3.794-.48.4-.042.391-.034.329-.423-.244-1.531-.488-3.062-.583-4.613-.109-1.778-.2-3.556-.25-5.336q-.125-4.93.088-9.856c.042-.973.081-1.946.146-2.918.008-.124-.026-.162-.151-.162-.671,0-1.343-.033-2.015-.017a1.108,1.108,0,0,1-.8-.258.988.988,0,0,1,.3-1.664,2.109,2.109,0,0,1,.815-.106c.979.006,1.958.035,2.937.027,1.042-.009,2.083,0,3.124,0ZM11.122,22.146q-.027,2.383.036,4.765c.041,1.525.1,3.049.207,4.571.05.722.079,1.446.167,2.164.137,1.111.323,2.214.489,3.321.015.1.052.115.143.106,1.8-.165,3.6-.333,5.4-.487,1.25-.108,2.5-.2,3.752-.291q2.469-.181,4.942-.3c1.346-.069,2.694-.124,4.041-.179q2.95-.12,5.9-.138c3.413-.024,6.822.065,10.225.321,1.07.081,2.138.174,3.2.3.574.067,1.146.144,1.72.216.193.024.188.022.187-.165,0-.552-.011-1.1.007-1.655.045-1.406.187-2.806.293-4.207.133-1.761.3-3.518.479-5.274q.2-1.95.422-3.9.278-2.419.578-4.838c.177-1.415.356-2.83.589-4.237.028-.165-.025-.176-.159-.178-2.683-.044-5.363.034-8.043.144q-2.442.1-4.882.249c-1.237.076-2.474.145-3.71.227-1.756.117-3.511.242-5.266.363-1.579.108-3.158.218-4.737.32-1.346.087-2.691.171-4.038.243-1.294.068-2.59.118-3.885.178q-2.372.109-4.745.171c-.963.027-1.926.045-2.89.061-.116,0-.15.039-.154.152-.013.359-.04.718-.058,1.077C11.219,17.544,11.137,19.844,11.122,22.146Z"/><path d="M33.03,19.028a4.9,4.9,0,0,1,.755-.146,3.06,3.06,0,0,1,1.936.541,6.6,6.6,0,0,1,2.985,4.571,5.984,5.984,0,0,1-1.742,5.417,4.218,4.218,0,0,1-6.08,0c-.141-.139-.138-.136-.267.013a5.768,5.768,0,0,1-4.67,2.119,3.541,3.541,0,0,1-3.355-2.346,4.261,4.261,0,0,1-.249-1.86,8.583,8.583,0,0,1,3.73-6.493A4.476,4.476,0,0,1,28.49,20a3.6,3.6,0,0,1,1.586.275c.119.05.154.03.19-.09a8.432,8.432,0,0,1,1.383-2.712A5.226,5.226,0,0,1,35.13,15.3c.4-.058.8-.142,1.2-.205a1.068,1.068,0,0,1,1.027.32.99.99,0,0,1-.488,1.614,8.625,8.625,0,0,1-.9.177c-.235.044-.469.1-.7.135a2.937,2.937,0,0,0-1.712,1.015A4.722,4.722,0,0,0,33.03,19.028Zm3.732,6.008c0-.109.006-.219,0-.327a4.712,4.712,0,0,0-1.207-2.786,3.549,3.549,0,0,0-1.07-.875.528.528,0,0,0-.263-.084,1.233,1.233,0,0,0-.761.315,5.833,5.833,0,0,0-1.953,2.981,4.671,4.671,0,0,0-.021,2.377,2.862,2.862,0,0,0,.62,1.107,2.235,2.235,0,0,0,3.471.2A4.16,4.16,0,0,0,36.762,25.036Zm-12.4,2.569a3.484,3.484,0,0,0,.043.529,1.494,1.494,0,0,0,1.259,1.332,2.619,2.619,0,0,0,1.132-.007,3.82,3.82,0,0,0,2.707-2,.455.455,0,0,0,.036-.384,4.7,4.7,0,0,1-.2-1.1,6.675,6.675,0,0,1,.52-3.142.253.253,0,0,0-.036-.286,1.366,1.366,0,0,0-1.058-.52,2.6,2.6,0,0,0-1.605.523,6.332,6.332,0,0,0-2.078,2.432A5.958,5.958,0,0,0,24.357,27.605Z"/></g><text x="0" y="79" fill="#000000" font-size="5px" font-weight="bold" font-family="'Helvetica Neue', Helvetica, Arial-Unicode, Arial, Sans-serif">Created by glyph.faisalovers</text><text x="0" y="84" fill="#000000" font-size="5px" font-weight="bold" font-family="'Helvetica Neue', Helvetica, Arial-Unicode, Arial, Sans-serif">from the Noun Project</text></svg>